<?xml version="1.0" encoding="utf-8"?>
<!-- Generator: Adobe Illustrator 16.0.0, SVG Export Plug-In . SVG Version: 6.00 Build 0)  -->
<!DOCTYPE svg PUBLIC "-//W3C//DTD SVG 1.1//EN" "http://www.w3.org/Graphics/SVG/1.1/DTD/svg11.dtd">
<svg version="1.1" id="Layer_1" xmlns="http://www.w3.org/2000/svg" xmlns:xlink="http://www.w3.org/1999/xlink" x="0px" y="0px"
	 width="200px" height="70px" viewBox="0 0 200 70" enable-background="new 0 0 200 70" xml:space="preserve">
<g>
	<g>
		<polygon fill="#E45325" points="25.652,60.865 21.68,16.309 65.331,16.309 61.354,60.858 43.479,65.813 		"/>
		<polygon fill="#F1692D" points="43.505,62.025 57.949,58.021 61.348,19.952 43.505,19.952 		"/>
		<polygon fill="#EBEBEB" points="43.505,36.478 36.274,36.478 35.774,30.882 43.505,30.882 43.505,25.417 43.486,25.417 
			29.802,25.417 29.933,26.883 31.276,41.941 43.505,41.941 		"/>
		<polygon fill="#EBEBEB" points="43.505,50.669 43.481,50.676 37.395,49.032 37.006,44.675 34.049,44.675 31.521,44.675 
			32.286,53.255 43.48,56.362 43.505,56.354 		"/>
		<g>
			<path fill="#030303" d="M25.741,4.2h2.777v2.744h2.541V4.2h2.777v8.309h-2.777V9.727h-2.54v2.782h-2.777V4.2L25.741,4.2z"/>
			<path fill="#030303" d="M37.487,6.956h-2.445V4.2h7.668v2.756h-2.446v5.553h-2.777L37.487,6.956L37.487,6.956z"/>
			<path fill="#030303" d="M43.928,4.2h2.896l1.781,2.92l1.78-2.92h2.896v8.309h-2.766V8.391l-1.911,2.954h-0.048l-1.912-2.954
				v4.118h-2.717V4.2L43.928,4.2z"/>
			<path fill="#030303" d="M54.663,4.2h2.778v5.562h3.905v2.746h-6.683V4.2L54.663,4.2z"/>
		</g>
		<polygon fill="#FFFFFF" points="43.486,36.478 43.486,41.941 50.215,41.941 49.581,49.028 43.486,50.674 43.486,56.359 
			54.689,53.255 54.771,52.331 56.056,37.944 56.188,36.478 54.716,36.478 		"/>
		<polygon fill="#FFFFFF" points="43.486,25.417 43.486,28.811 43.486,30.868 43.486,30.882 56.668,30.882 56.668,30.882 
			56.686,30.882 56.796,29.653 57.044,26.883 57.175,25.417 		"/>
	</g>
	<g>
		<g>
			<polygon fill="#171617" points="168.877,6.478 165.254,6.478 169.021,10.566 169.021,12.512 161.26,12.512 161.26,10.233 
				165.027,10.233 161.26,6.146 161.26,4.196 168.877,4.196 			"/>
			<polygon fill="#171617" points="159.723,6.478 156.1,6.478 159.867,10.566 159.867,12.512 152.105,12.512 152.105,10.233 
				155.873,10.233 152.105,6.146 152.105,4.196 159.723,4.196 			"/>
			<polygon fill="#171617" points="150.658,6.57 146.748,6.57 146.748,10.139 150.658,10.139 150.658,12.512 143.971,12.512 
				143.971,4.196 150.658,4.196 			"/>
		</g>
		<polygon fill="#1874B6" points="138.643,60.865 134.67,16.309 178.32,16.309 174.344,60.857 156.469,65.813 		"/>
		<polygon fill="#37A9DA" points="156.496,62.025 170.939,58.021 174.338,19.952 156.496,19.952 		"/>
		<g>
			<polygon fill="#FFFFFF" points="156.496,36.095 163.727,36.095 164.227,30.499 156.496,30.499 156.496,25.033 156.514,25.033 
				170.199,25.033 170.066,26.5 168.725,41.559 156.496,41.559 			"/>
			<polygon fill="#EBEBEB" points="156.527,50.286 156.504,50.293 150.418,48.649 150.029,44.291 147.072,44.291 144.543,44.291 
				145.309,52.872 156.504,55.979 156.527,55.972 			"/>
			<polygon fill="#FFFFFF" points="163.262,41.327 162.604,48.646 156.51,50.291 156.51,55.977 167.713,52.872 167.795,51.948 
				168.744,41.327 			"/>
			<polygon fill="#EBEBEB" points="156.514,25.033 156.514,28.428 156.514,30.485 156.514,30.499 143.332,30.499 143.332,30.499 
				143.314,30.499 143.205,29.271 142.955,26.5 142.826,25.033 			"/>
			<polygon fill="#EBEBEB" points="156.496,36.095 156.496,39.489 156.496,41.546 156.496,41.56 150.504,41.56 150.504,41.56 
				150.486,41.56 150.377,40.331 150.127,37.562 149.998,36.095 			"/>
		</g>
	</g>
	<g>
		<polygon fill="#E4A229" points="82.148,60.865 78.176,16.309 121.826,16.309 117.85,60.858 99.975,65.813 		"/>
		<polygon fill="#EFBF23" points="99.965,61.971 114.408,57.967 117.807,19.896 99.965,19.896 		"/>
		<g>
			<polygon fill="#171617" points="107.77,6.468 104.146,6.468 107.914,10.556 107.914,12.502 100.152,12.502 100.152,10.224 
				103.92,10.224 100.152,6.135 100.152,4.187 107.77,4.187 			"/>
			<path fill="#030303" d="M98.771,4.189v8.309h-6.684V9.752h3.906V4.189H98.771L98.771,4.189z"/>
		</g>
		<polygon fill="#EBEBEB" points="99.955,50.618 99.932,50.625 93.846,48.981 93.457,44.623 90.5,44.623 87.971,44.623 
			88.736,53.203 99.93,56.311 99.955,56.304 		"/>
		<polygon fill="#EBEBEB" points="100.691,41.888 100.691,36.424 93.963,36.424 94.752,27.847 100.707,27.688 100.691,22.006 
			89.811,22.006 89.406,26.034 88.123,40.421 87.99,41.888 89.461,41.888 		"/>
		<polygon fill="#FFFFFF" points="100.654,27.696 100.68,27.689 106.646,28.049 107.154,33.69 110.111,33.69 112.639,33.69 
			111.684,23.133 100.68,22.003 100.654,22.011 		"/>
		<polyline fill="#FFFFFF" points="112.076,27.713 111.607,22.006 100.072,22.006 100.072,25.55 100.072,27.698 100.072,27.713 
			112.076,27.713 		"/>
		<polygon fill="#FFFFFF" points="99.938,36.426 99.938,41.891 106.666,41.891 106.031,48.978 99.938,50.623 99.938,56.309 
			111.141,53.203 111.221,52.28 112.506,37.894 112.639,36.426 111.166,36.426 		"/>
		<path fill="#FFFFFF" d="M111.373,27.471"/>
	</g>
</g>
</svg>
